<svg width="1200" height="1081" viewBox="0 0 1200 1081" xmlns="http://www.w3.org/2000/svg" xmlns:xlink="http://www.w3.org/1999/xlink"><title>background circles</title><defs><path d="M688.944 441.597c121.024 0 219.133-98.111 219.133-219.138S809.967 3.32 688.944 3.32c-121.025 0-219.134 98.112-219.134 219.139 0 121.027 98.11 219.138 219.134 219.138z" id="a"/><path d="M283.048 1060c121.024 0 219.134-98.112 219.134-219.139 0-121.027-98.11-219.138-219.134-219.138-121.024 0-219.134 98.111-219.134 219.138S162.024 1060 283.048 1060z" id="b"/><path d="M957.88 442.428c121.025 0 219.134-98.112 219.134-219.139 0-121.027-98.11-219.139-219.133-219.139-121.025 0-219.134 98.112-219.134 219.139 0 121.027 98.11 219.139 219.134 219.139z" id="c"/><path d="M263.127 715.52c145.32 0 263.126-117.808 263.126-263.132S408.447 189.256 263.127 189.256C117.806 189.256 0 307.064 0 452.388s117.806 263.133 263.127 263.133z" id="d"/><path d="M632.5 1025.137c121.024 0 219.134-98.112 219.134-219.139 0-121.026-98.11-219.138-219.134-219.138-121.024 0-219.134 98.112-219.134 219.138 0 121.027 98.11 219.139 219.134 219.139z" id="e"/><path d="M665.226 678.998C839.623 678.998 981 537.618 981 363.217S839.623 47.437 665.226 47.437s-315.774 141.379-315.774 315.78c0 174.4 141.377 315.78 315.774 315.78z" id="f"/><path d="M383.279 278.953c73.947 0 133.893-59.947 133.893-133.896 0-73.95-59.946-133.897-133.893-133.897-73.948 0-133.894 59.948-133.894 133.897 0 73.949 59.946 133.896 133.894 133.896z" id="g"/><path d="M739.137 986.744c100.063 0 181.181-81.12 181.181-181.185 0-100.066-81.118-181.185-181.181-181.185-100.064 0-181.181 81.119-181.181 181.185 0 100.065 81.117 181.185 181.18 181.185z" id="h"/><path d="M1001.873 967.862c145.321 0 263.127-117.808 263.127-263.132s-117.806-263.133-263.127-263.133c-145.32 0-263.126 117.809-263.126 263.133 0 145.324 117.806 263.132 263.126 263.132z" id="i"/><path d="M1147.054 500.953c73.947 0 133.894-59.947 133.894-133.896 0-73.95-59.947-133.897-133.894-133.897s-133.894 59.948-133.894 133.897c0 73.949 59.947 133.896 133.894 133.896z" id="j"/></defs><g fill="none" fill-rule="evenodd" opacity=".05"><g transform="translate(-33 5)"><use fill="#000" xlink:href="#a"/><use stroke="url(#linearGradient-1)" fill="#CDCDCD" xlink:href="#a"/><use stroke="url(#linearGradient-2)" xlink:href="#a"/></g><g transform="translate(-33 5)"><use fill="#000" xlink:href="#b"/><use stroke="url(#linearGradient-1)" fill="#555" xlink:href="#b"/><use stroke="url(#linearGradient-2)" xlink:href="#b"/></g><g transform="translate(-33 5)"><use fill="#000" xlink:href="#c"/><use stroke="url(#linearGradient-1)" fill="#9B9B9B" xlink:href="#c"/><use stroke="url(#linearGradient-2)" xlink:href="#c"/></g><g transform="translate(-33 5)"><use fill="#000" xlink:href="#d"/><use stroke="url(#linearGradient-1)" fill="#4A4A4A" xlink:href="#d"/><use stroke="url(#linearGradient-2)" xlink:href="#d"/></g><g transform="translate(-33 5)"><use fill="#000" xlink:href="#e"/><use stroke="url(#linearGradient-1)" fill="#4A4A4A" xlink:href="#e"/><use stroke="url(#linearGradient-2)" xlink:href="#e"/></g><g transform="translate(-33 5)"><use fill="#000" xlink:href="#f"/><use stroke="url(#linearGradient-1)" fill="#000" xlink:href="#f"/><use stroke="url(#linearGradient-2)" xlink:href="#f"/></g><g transform="rotate(5 309.52 -230.355)"><use fill="#000" xlink:href="#g"/><use stroke="url(#linearGradient-1)" fill="#CDCDCD" xlink:href="#g"/><use stroke="url(#linearGradient-2)" xlink:href="#g"/></g><path d="M153.347 256.511c53.406 0 96.7-39.765 96.7-88.817 0-49.053-43.294-88.818-96.7-88.818-53.407 0-96.701 39.765-96.701 88.818 0 49.052 43.294 88.817 96.7 88.817z" fill="#7F7F7F"/><g transform="rotate(5 665.378 430.146)"><use fill="#000" xlink:href="#h"/><use stroke="url(#linearGradient-1)" fill="#6B6666" xlink:href="#h"/><use stroke="url(#linearGradient-2)" xlink:href="#h"/></g><g transform="translate(-33 5)"><use stroke="url(#linearGradient-1)" fill="#9B9B9B" xlink:href="#i"/><use stroke="url(#linearGradient-2)" xlink:href="#i"/></g><g transform="rotate(5 1073.295 -8.355)"><use stroke="url(#linearGradient-1)" fill="#4A4A4A" xlink:href="#j"/><use stroke="url(#linearGradient-2)" xlink:href="#j"/></g></g></svg>