<svg width="1200" height="1081" viewBox="0 0 1200 1081" xmlns="http://www.w3.org/2000/svg" xmlns:xlink="http://www.w3.org/1999/xlink"><title>background circles</title><defs><linearGradient x1="50%" y1="0%" x2="50%" y2="99.021%" id="l"><stop stop-opacity="0" offset="0%"/><stop stop-opacity=".02" offset="80%"/><stop stop-opacity=".04" offset="100%"/></linearGradient><linearGradient x1="50%" y1="0%" x2="50%" y2="100%" id="n"><stop stop-color="#FFF" stop-opacity=".12" offset="0%"/><stop stop-color="#FFF" stop-opacity=".06" offset="20%"/><stop stop-color="#FFF" stop-opacity="0" offset="100%"/></linearGradient><path d="M688.944 441.597c121.024 0 219.133-98.111 219.133-219.138S809.967 3.32 688.944 3.32c-121.025 0-219.134 98.112-219.134 219.139 0 121.027 98.11 219.138 219.134 219.138z" id="a"/><filter x="-50%" y="-50%" width="200%" height="200%" filterUnits="objectBoundingBox" id="k"><feOffset dy="8" in="SourceAlpha" result="shadowOffsetOuter1"/><feGaussianBlur stdDeviation="4" in="shadowOffsetOuter1" result="shadowBlurOuter1"/><feComposite in="shadowBlurOuter1" in2="SourceAlpha" operator="out" result="shadowBlurOuter1"/><feColorMatrix values="0 0 0 0 0 0 0 0 0 0 0 0 0 0 0 0 0 0 0.24 0" in="shadowBlurOuter1" result="shadowMatrixOuter1"/><feOffset in="SourceAlpha" result="shadowOffsetOuter2"/><feGaussianBlur stdDeviation="4" in="shadowOffsetOuter2" result="shadowBlurOuter2"/><feComposite in="shadowBlurOuter2" in2="SourceAlpha" operator="out" result="shadowBlurOuter2"/><feColorMatrix values="0 0 0 0 0 0 0 0 0 0 0 0 0 0 0 0 0 0 0.12 0" in="shadowBlurOuter2" result="shadowMatrixOuter2"/><feMerge><feMergeNode in="shadowMatrixOuter1"/><feMergeNode in="shadowMatrixOuter2"/></feMerge></filter><mask id="m" x="0" y="0" width="438.268" height="438.277" fill="#fff"><use xlink:href="#a"/></mask><mask id="o" x="0" y="0" width="438.268" height="438.277" fill="#fff"><use xlink:href="#a"/></mask><path d="M283.048 1060c121.024 0 219.134-98.112 219.134-219.139 0-121.027-98.11-219.138-219.134-219.138-121.024 0-219.134 98.111-219.134 219.138S162.024 1060 283.048 1060z" id="b"/><filter x="-50%" y="-50%" width="200%" height="200%" filterUnits="objectBoundingBox" id="p"><feOffset dy="8" in="SourceAlpha" result="shadowOffsetOuter1"/><feGaussianBlur stdDeviation="4" in="shadowOffsetOuter1" result="shadowBlurOuter1"/><feComposite in="shadowBlurOuter1" in2="SourceAlpha" operator="out" result="shadowBlurOuter1"/><feColorMatrix values="0 0 0 0 0 0 0 0 0 0 0 0 0 0 0 0 0 0 0.24 0" in="shadowBlurOuter1" result="shadowMatrixOuter1"/><feOffset in="SourceAlpha" result="shadowOffsetOuter2"/><feGaussianBlur stdDeviation="4" in="shadowOffsetOuter2" result="shadowBlurOuter2"/><feComposite in="shadowBlurOuter2" in2="SourceAlpha" operator="out" result="shadowBlurOuter2"/><feColorMatrix values="0 0 0 0 0 0 0 0 0 0 0 0 0 0 0 0 0 0 0.12 0" in="shadowBlurOuter2" result="shadowMatrixOuter2"/><feMerge><feMergeNode in="shadowMatrixOuter1"/><feMergeNode in="shadowMatrixOuter2"/></feMerge></filter><mask id="q" x="0" y="0" width="438.268" height="438.277" fill="#fff"><use xlink:href="#b"/></mask><mask id="r" x="0" y="0" width="438.268" height="438.277" fill="#fff"><use xlink:href="#b"/></mask><path d="M957.88 442.428c121.025 0 219.134-98.112 219.134-219.139 0-121.027-98.11-219.139-219.133-219.139-121.025 0-219.134 98.112-219.134 219.139 0 121.027 98.11 219.139 219.134 219.139z" id="c"/><filter x="-50%" y="-50%" width="200%" height="200%" filterUnits="objectBoundingBox" id="s"><feOffset dy="8" in="SourceAlpha" result="shadowOffsetOuter1"/><feGaussianBlur stdDeviation="4" in="shadowOffsetOuter1" result="shadowBlurOuter1"/><feComposite in="shadowBlurOuter1" in2="SourceAlpha" operator="out" result="shadowBlurOuter1"/><feColorMatrix values="0 0 0 0 0 0 0 0 0 0 0 0 0 0 0 0 0 0 0.24 0" in="shadowBlurOuter1" result="shadowMatrixOuter1"/><feOffset in="SourceAlpha" result="shadowOffsetOuter2"/><feGaussianBlur stdDeviation="4" in="shadowOffsetOuter2" result="shadowBlurOuter2"/><feComposite in="shadowBlurOuter2" in2="SourceAlpha" operator="out" result="shadowBlurOuter2"/><feColorMatrix values="0 0 0 0 0 0 0 0 0 0 0 0 0 0 0 0 0 0 0.12 0" in="shadowBlurOuter2" result="shadowMatrixOuter2"/><feMerge><feMergeNode in="shadowMatrixOuter1"/><feMergeNode in="shadowMatrixOuter2"/></feMerge></filter><mask id="t" x="0" y="0" width="438.268" height="438.277" fill="#fff"><use xlink:href="#c"/></mask><mask id="u" x="0" y="0" width="438.268" height="438.277" fill="#fff"><use xlink:href="#c"/></mask><path d="M263.127 715.52c145.32 0 263.126-117.808 263.126-263.132S408.447 189.256 263.127 189.256C117.806 189.256 0 307.064 0 452.388s117.806 263.133 263.127 263.133z" id="d"/><filter x="-50%" y="-50%" width="200%" height="200%" filterUnits="objectBoundingBox" id="v"><feOffset dy="8" in="SourceAlpha" result="shadowOffsetOuter1"/><feGaussianBlur stdDeviation="4" in="shadowOffsetOuter1" result="shadowBlurOuter1"/><feComposite in="shadowBlurOuter1" in2="SourceAlpha" operator="out" result="shadowBlurOuter1"/><feColorMatrix values="0 0 0 0 0 0 0 0 0 0 0 0 0 0 0 0 0 0 0.24 0" in="shadowBlurOuter1" result="shadowMatrixOuter1"/><feOffset in="SourceAlpha" result="shadowOffsetOuter2"/><feGaussianBlur stdDeviation="4" in="shadowOffsetOuter2" result="shadowBlurOuter2"/><feComposite in="shadowBlurOuter2" in2="SourceAlpha" operator="out" result="shadowBlurOuter2"/><feColorMatrix values="0 0 0 0 0 0 0 0 0 0 0 0 0 0 0 0 0 0 0.12 0" in="shadowBlurOuter2" result="shadowMatrixOuter2"/><feMerge><feMergeNode in="shadowMatrixOuter1"/><feMergeNode in="shadowMatrixOuter2"/></feMerge></filter><mask id="w" x="0" y="0" width="526.253" height="526.265" fill="#fff"><use xlink:href="#d"/></mask><mask id="x" x="0" y="0" width="526.253" height="526.265" fill="#fff"><use xlink:href="#d"/></mask><path d="M632.5 1025.137c121.024 0 219.134-98.112 219.134-219.139 0-121.026-98.11-219.138-219.134-219.138-121.024 0-219.134 98.112-219.134 219.138 0 121.027 98.11 219.139 219.134 219.139z" id="e"/><filter x="-50%" y="-50%" width="200%" height="200%" filterUnits="objectBoundingBox" id="y"><feOffset dy="8" in="SourceAlpha" result="shadowOffsetOuter1"/><feGaussianBlur stdDeviation="4" in="shadowOffsetOuter1" result="shadowBlurOuter1"/><feComposite in="shadowBlurOuter1" in2="SourceAlpha" operator="out" result="shadowBlurOuter1"/><feColorMatrix values="0 0 0 0 0 0 0 0 0 0 0 0 0 0 0 0 0 0 0.24 0" in="shadowBlurOuter1" result="shadowMatrixOuter1"/><feOffset in="SourceAlpha" result="shadowOffsetOuter2"/><feGaussianBlur stdDeviation="4" in="shadowOffsetOuter2" result="shadowBlurOuter2"/><feComposite in="shadowBlurOuter2" in2="SourceAlpha" operator="out" result="shadowBlurOuter2"/><feColorMatrix values="0 0 0 0 0 0 0 0 0 0 0 0 0 0 0 0 0 0 0.12 0" in="shadowBlurOuter2" result="shadowMatrixOuter2"/><feMerge><feMergeNode in="shadowMatrixOuter1"/><feMergeNode in="shadowMatrixOuter2"/></feMerge></filter><mask id="z" x="0" y="0" width="438.268" height="438.277" fill="#fff"><use xlink:href="#e"/></mask><mask id="A" x="0" y="0" width="438.268" height="438.277" fill="#fff"><use xlink:href="#e"/></mask><path d="M665.226 678.998C839.623 678.998 981 537.618 981 363.217S839.623 47.437 665.226 47.437s-315.774 141.379-315.774 315.78c0 174.4 141.377 315.78 315.774 315.78z" id="f"/><filter x="-50%" y="-50%" width="200%" height="200%" filterUnits="objectBoundingBox" id="B"><feOffset dy="8" in="SourceAlpha" result="shadowOffsetOuter1"/><feGaussianBlur stdDeviation="4" in="shadowOffsetOuter1" result="shadowBlurOuter1"/><feComposite in="shadowBlurOuter1" in2="SourceAlpha" operator="out" result="shadowBlurOuter1"/><feColorMatrix values="0 0 0 0 0 0 0 0 0 0 0 0 0 0 0 0 0 0 0.24 0" in="shadowBlurOuter1" result="shadowMatrixOuter1"/><feOffset in="SourceAlpha" result="shadowOffsetOuter2"/><feGaussianBlur stdDeviation="4" in="shadowOffsetOuter2" result="shadowBlurOuter2"/><feComposite in="shadowBlurOuter2" in2="SourceAlpha" operator="out" result="shadowBlurOuter2"/><feColorMatrix values="0 0 0 0 0 0 0 0 0 0 0 0 0 0 0 0 0 0 0.12 0" in="shadowBlurOuter2" result="shadowMatrixOuter2"/><feMerge><feMergeNode in="shadowMatrixOuter1"/><feMergeNode in="shadowMatrixOuter2"/></feMerge></filter><mask id="C" x="0" y="0" width="631.548" height="631.562" fill="#fff"><use xlink:href="#f"/></mask><mask id="D" x="0" y="0" width="631.548" height="631.562" fill="#fff"><use xlink:href="#f"/></mask><path d="M383.279 278.953c73.947 0 133.893-59.947 133.893-133.896 0-73.95-59.946-133.897-133.893-133.897-73.948 0-133.894 59.948-133.894 133.897 0 73.949 59.946 133.896 133.894 133.896z" id="g"/><filter x="-50%" y="-50%" width="200%" height="200%" filterUnits="objectBoundingBox" id="E"><feOffset dy="8" in="SourceAlpha" result="shadowOffsetOuter1"/><feGaussianBlur stdDeviation="4" in="shadowOffsetOuter1" result="shadowBlurOuter1"/><feComposite in="shadowBlurOuter1" in2="SourceAlpha" operator="out" result="shadowBlurOuter1"/><feColorMatrix values="0 0 0 0 0 0 0 0 0 0 0 0 0 0 0 0 0 0 0.24 0" in="shadowBlurOuter1" result="shadowMatrixOuter1"/><feOffset in="SourceAlpha" result="shadowOffsetOuter2"/><feGaussianBlur stdDeviation="4" in="shadowOffsetOuter2" result="shadowBlurOuter2"/><feComposite in="shadowBlurOuter2" in2="SourceAlpha" operator="out" result="shadowBlurOuter2"/><feColorMatrix values="0 0 0 0 0 0 0 0 0 0 0 0 0 0 0 0 0 0 0.12 0" in="shadowBlurOuter2" result="shadowMatrixOuter2"/><feMerge><feMergeNode in="shadowMatrixOuter1"/><feMergeNode in="shadowMatrixOuter2"/></feMerge></filter><mask id="F" x="0" y="0" width="267.787" height="267.793" fill="#fff"><use xlink:href="#g"/></mask><mask id="G" x="0" y="0" width="267.787" height="267.793" fill="#fff"><use xlink:href="#g"/></mask><path d="M739.137 986.744c100.063 0 181.181-81.12 181.181-181.185 0-100.066-81.118-181.185-181.181-181.185-100.064 0-181.181 81.119-181.181 181.185 0 100.065 81.117 181.185 181.18 181.185z" id="h"/><filter x="-50%" y="-50%" width="200%" height="200%" filterUnits="objectBoundingBox" id="H"><feOffset dy="8" in="SourceAlpha" result="shadowOffsetOuter1"/><feGaussianBlur stdDeviation="4" in="shadowOffsetOuter1" result="shadowBlurOuter1"/><feComposite in="shadowBlurOuter1" in2="SourceAlpha" operator="out" result="shadowBlurOuter1"/><feColorMatrix values="0 0 0 0 0 0 0 0 0 0 0 0 0 0 0 0 0 0 0.24 0" in="shadowBlurOuter1" result="shadowMatrixOuter1"/><feOffset in="SourceAlpha" result="shadowOffsetOuter2"/><feGaussianBlur stdDeviation="4" in="shadowOffsetOuter2" result="shadowBlurOuter2"/><feComposite in="shadowBlurOuter2" in2="SourceAlpha" operator="out" result="shadowBlurOuter2"/><feColorMatrix values="0 0 0 0 0 0 0 0 0 0 0 0 0 0 0 0 0 0 0.12 0" in="shadowBlurOuter2" result="shadowMatrixOuter2"/><feMerge><feMergeNode in="shadowMatrixOuter1"/><feMergeNode in="shadowMatrixOuter2"/></feMerge></filter><mask id="I" x="0" y="0" width="362.362" height="362.37" fill="#fff"><use xlink:href="#h"/></mask><mask id="J" x="0" y="0" width="362.362" height="362.37" fill="#fff"><use xlink:href="#h"/></mask><path d="M1001.873 967.862c145.321 0 263.127-117.808 263.127-263.132s-117.806-263.133-263.127-263.133c-145.32 0-263.126 117.809-263.126 263.133 0 145.324 117.806 263.132 263.126 263.132z" id="i"/><mask id="K" x="0" y="0" width="526.253" height="526.265" fill="#fff"><use xlink:href="#i"/></mask><mask id="L" x="0" y="0" width="526.253" height="526.265" fill="#fff"><use xlink:href="#i"/></mask><path d="M1147.054 500.953c73.947 0 133.894-59.947 133.894-133.896 0-73.95-59.947-133.897-133.894-133.897s-133.894 59.948-133.894 133.897c0 73.949 59.947 133.896 133.894 133.896z" id="j"/><mask id="M" x="0" y="0" width="267.787" height="267.793" fill="#fff"><use xlink:href="#j"/></mask><mask id="N" x="0" y="0" width="267.787" height="267.793" fill="#fff"><use xlink:href="#j"/></mask></defs><g fill="none" fill-rule="evenodd" opacity=".05"><g transform="translate(-33 5)"><use fill="#000" filter="url(#k)" xlink:href="#a"/><use stroke="url(#l)" mask="url(#m)" fill="#CDCDCD" xlink:href="#a"/><use stroke="url(#n)" mask="url(#o)" xlink:href="#a"/></g><g transform="translate(-33 5)"><use fill="#000" filter="url(#p)" xlink:href="#b"/><use stroke="url(#l)" mask="url(#q)" fill="#555" xlink:href="#b"/><use stroke="url(#n)" mask="url(#r)" xlink:href="#b"/></g><g transform="translate(-33 5)"><use fill="#000" filter="url(#s)" xlink:href="#c"/><use stroke="url(#l)" mask="url(#t)" fill="#9B9B9B" xlink:href="#c"/><use stroke="url(#n)" mask="url(#u)" xlink:href="#c"/></g><g transform="translate(-33 5)"><use fill="#000" filter="url(#v)" xlink:href="#d"/><use stroke="url(#l)" mask="url(#w)" fill="#4A4A4A" xlink:href="#d"/><use stroke="url(#n)" mask="url(#x)" xlink:href="#d"/></g><g transform="translate(-33 5)"><use fill="#000" filter="url(#y)" xlink:href="#e"/><use stroke="url(#l)" mask="url(#z)" fill="#4A4A4A" xlink:href="#e"/><use stroke="url(#n)" mask="url(#A)" xlink:href="#e"/></g><g transform="translate(-33 5)"><use fill="#000" filter="url(#B)" xlink:href="#f"/><use stroke="url(#l)" mask="url(#C)" fill="#000" xlink:href="#f"/><use stroke="url(#n)" mask="url(#D)" xlink:href="#f"/></g><g transform="rotate(5 309.52 -230.355)"><use fill="#000" filter="url(#E)" xlink:href="#g"/><use stroke="url(#l)" mask="url(#F)" fill="#CDCDCD" xlink:href="#g"/><use stroke="url(#n)" mask="url(#G)" xlink:href="#g"/></g><path d="M153.347 256.511c53.406 0 96.7-39.765 96.7-88.817 0-49.053-43.294-88.818-96.7-88.818-53.407 0-96.701 39.765-96.701 88.818 0 49.052 43.294 88.817 96.7 88.817z" fill="#7F7F7F"/><g transform="rotate(5 665.378 430.146)"><use fill="#000" filter="url(#H)" xlink:href="#h"/><use stroke="url(#l)" mask="url(#I)" fill="#6B6666" xlink:href="#h"/><use stroke="url(#n)" mask="url(#J)" xlink:href="#h"/></g><g transform="translate(-33 5)"><use stroke="url(#l)" mask="url(#K)" fill="#9B9B9B" xlink:href="#i"/><use stroke="url(#n)" mask="url(#L)" xlink:href="#i"/></g><g transform="rotate(5 1073.295 -8.355)"><use stroke="url(#l)" mask="url(#M)" fill="#4A4A4A" xlink:href="#j"/><use stroke="url(#n)" mask="url(#N)" xlink:href="#j"/></g></g></svg>